<?xml version="1.0" encoding="utf-8"?>
<!-- Generator: Adobe Illustrator 18.0.0, SVG Export Plug-In . SVG Version: 6.00 Build 0)  -->
<!DOCTYPE svg PUBLIC "-//W3C//DTD SVG 1.1//EN" "http://www.w3.org/Graphics/SVG/1.1/DTD/svg11.dtd">
<svg version="1.1" id="Layer_1" xmlns="http://www.w3.org/2000/svg" xmlns:xlink="http://www.w3.org/1999/xlink" x="0px" y="0px"
	 viewBox="0 0 2000 2000" enable-background="new 0 0 2000 2000" xml:space="preserve">
<g>
	<g>
		<g>
			<path fill="#fff" d="M598.3,824.5v8.4h126.8v242.9c0,81.6-66.4,148.1-148.1,148.1h-4.5c-81.6,0-148.1-66.4-148.1-148.1
				V832.9h130.1v-8.4H416.1v251.3c0,86.3,70.2,156.5,156.5,156.5h4.5c86.3,0,156.5-70.2,156.5-156.5V824.5H598.3z"/>
		</g>
		<g>
			<g>
				<path fill="#fff" d="M706.6,1094V958.4c-14.2-1.1-64.6-4.6-111-2.3l-0.4-8.9c55.3-2.6,115.7,2.7,116.3,2.7l4.1,0.4
					v144"/>
			</g>
		</g>
		<g>
			<g>
				<polygon fill="#fff" points="491.8,953.8 486.3,946.8 544.9,899.8 544.9,844.9 553.8,844.9 553.8,904.1 				"/>
			</g>
		</g>
		<g>
			<g>
				<polygon fill="#fff" points="515.7,953.8 510.1,946.8 558,907.1 558,827.7 566.9,827.7 566.9,911.4 				"/>
			</g>
		</g>
		<g>
			<g>
				<polygon fill="#fff" points="663.3,953.8 598.6,904.1 598.6,844.9 607.5,844.9 607.5,899.7 668.7,946.8 				"/>
			</g>
		</g>
		<g>
			<g>
				<polygon fill="#fff" points="638.1,953.8 584.9,911.4 584.9,827.7 593.8,827.7 593.8,907 643.5,946.8 				"/>
			</g>
		</g>
		<g>
			<g>
				<path fill="#fff" d="M527.6,797.7c-5.7,0-10.9-2.1-15.5-6.2l-1.4-1.3v-44.6l8.2,12.4c0,0,4.1,6,10.3,6
					c4.4,0,9.1-2.9,14-8.7l0.4-0.4c0.4-0.3,9.3-8.5,19.6-8.5c4.5,0,11,1.6,16.4,9.1l0.8,1.2v40l-7.8-8.6c0-0.1-5.8-6.3-12.2-6.3
					c-2.8,0-5.4,1.2-7.8,3.7C552.1,786,540.9,797.7,527.6,797.7z M519.6,786.1c2.5,1.8,5.1,2.7,8,2.7c9.4,0,18.5-9.3,18.5-9.4
					c4.2-4.3,9-6.5,14.3-6.5c4.2,0,8,1.4,11,3.1v-16.4c-2.4-2.9-5.2-4.3-8.4-4.3c-6.2,0-12.3,5-13.4,5.9
					c-6.6,7.7-13.6,11.5-20.6,11.5c-3.7,0-6.9-1.1-9.5-2.6V786.1z"/>
			</g>
		</g>
		<g>
			<g>
				<rect x="571.4" y="781.1" fill="#fff" width="8.9" height="132.5"/>
			</g>
		</g>
		<g>
			<g>
				<path fill="#fff" d="M553.9,1051.1v-40.5h42.9v54.1h7v-54.4h20.7v-45.7h36.3v117.6h-8.9V973.5h-18.5v36.8h13.7v70.1
					l-22.6-6.8v-54.4h-11.7v49.9l-24.8-4.5v-45.1h-25.1v40.5 M633.4,1071.5h4.8v-52.3h-4.8V1071.5z"/>
			</g>
		</g>
		<g>
			<g>
				<polygon fill="#fff" points="699.4,1089 690.4,1089 690.4,975.7 674.6,974 674.6,1082.2 665.7,1082.2 665.7,964.1 
					699.4,967.7 				"/>
			</g>
		</g>
		<g>
			<rect x="433.6" y="951.5" fill="#fff" width="9.1" height="89.8"/>
		</g>
		<g>
			<path fill="#fff" d="M540.8,1012L540.8,1012c-1.3,0-2.5-0.2-3.8-0.5l-68.2-19.2c-7.1-2-11.3-9.1-9.4-15.9
				c1.5-5.4,6.7-9.2,12.5-9.2c1.3,0,2.5,0.2,3.8,0.5l68.2,19.2c7.1,2,11.3,9.1,9.4,15.9C551.8,1008.3,546.7,1012,540.8,1012z
				 M471.9,977.5c-1.3,0-2.4,0.7-2.7,1.7c-0.4,1.3,0.7,2.8,2.3,3.3l68.2,19.2c1.6,0.5,3.3-0.3,3.7-1.6c0.4-1.4-0.7-2.8-2.3-3.3
				l-68.2-19.2C472.6,977.5,472.3,977.5,471.9,977.5z"/>
		</g>
		<g>
			<path fill="#fff" d="M514.1,1116.3l-78.7-22.1l24.8-96.5l80.9,22.7L514.1,1116.3z M447.7,1087.1l59.3,16.7l21.4-76.3
				l-61-17.1L447.7,1087.1z"/>
		</g>
		<g>
			<polygon fill="#fff" points="710.8,1150.5 515.5,1092 518.4,1082.3 713.7,1140.8 			"/>
		</g>
		<g>
			<polygon fill="#fff" points="724.4,1102.1 526.6,1053.4 529.1,1043.5 726.8,1092.2 			"/>
		</g>
		<path fill="#fff" d="M595.3,949v16.1H582v27.3H567v-26h-13.9v-19l-4.2-0.2c-51.7-2.6-111.7,2.6-112.2,2.7l-3.1,0.3v9
			l7.9-0.8c13.5-1.1,60.6-4.3,102.7-2.5v19.4h13.9v26h32.8V974h13.3v-25H595.3z"/>
		<path fill="#fff" d="M512.4,1126.7c-1.8-2.9-4.6-5-8-6l-68.2-19.2c-1.2-0.3-2.5-0.5-3.8-0.5c-2.8,0-5.4,0.9-7.6,2.4
			c1.4,5.6,3.9,15.2,6.2,23.1l66.5,18.7c1.2,0.3,2.5,0.5,3.8,0.5c0,0,0,0,0,0c5.8,0,11-3.8,12.5-9.2
			C514.7,1133.3,514.2,1129.8,512.4,1126.7z M504,1133.9c-0.4,1.3-2.1,2-3.7,1.6l-68.2-19.2c-0.9-0.2-1.6-0.8-2-1.5
			c-0.3-0.4-0.5-1.1-0.3-1.8c0.3-1,1.4-1.7,2.7-1.7c0.3,0,0.7,0,1,0.1l68.2,19.2c0.9,0.2,1.6,0.8,2,1.5
			C503.9,1132.5,504.2,1133.1,504,1133.9z"/>
	</g>
	<path fill="#fff" d="M808.6,914.9h60.2c33.4,0,53.9,21.2,53.9,51.6c0,31.3-21,52.5-53.9,52.5h-39.9v59.3h-20.3V914.9z
		 M866.2,1000.4c22.6,0,35.5-11.9,35.5-33.9c0-21-13.5-33.2-35.5-33.2h-37.4v67H866.2z"/>
	<path fill="#fff" d="M935.4,1018.8c0-34.3,17-61.9,53.9-61.9c36.9,0,53.9,27.6,53.9,61.9c0,34.1-16.6,61.6-53.9,61.6
		C952,1080.5,935.4,1053.2,935.4,1018.8z M1023.4,1018.8c0-25.7-9.8-44.4-34.1-44.4c-24.3,0-34.1,18.9-34.1,44.4
		c0,25.7,10,44.1,34.1,44.1C1013.6,1063,1023.4,1044.5,1023.4,1018.8z"/>
	<path fill="#fff" d="M1073.6,905.6h19.6v172.8h-19.6V905.6z"/>
	<path fill="#fff" d="M1129.2,922.4c0-8.2,4.4-13.5,13.5-13.5c8.9,0,13.5,5.4,13.5,13.5c0,8.4-4.7,13.8-13.5,13.8
		C1133.6,936.2,1129.2,930.8,1129.2,922.4z M1132.9,959.1h19.6v119.3h-19.6V959.1z"/>
	<path fill="#fff" d="M1190,1093.6h18.9c0.9,11.4,10,23.6,32,23.6c22.9,0,33.2-14.2,33.2-32.2v-23.1h-0.9
		c-6.3,10.5-18.2,18.7-36,18.7c-33.6,0-50.4-26.4-50.7-61.6c0.2-38.5,19.4-61.9,50.7-61.9c17.7,0,29.7,8.2,36,18.7h0.9l2.6-16.6h17
		v126.3c0,27.3-18.7,48.6-52.8,48.6C1210.3,1134,1190.7,1116.4,1190,1093.6z M1274.5,1018.8c0-23.8-10.3-44.4-34.1-44.4
		c-24.8,0-34.1,20.3-34.1,44.4c0,23.8,9.3,44.1,34.1,44.1C1264.2,1063,1274.5,1042.4,1274.5,1018.8z"/>
	<path fill="#fff" d="M1329.7,905.6h19.6v172.8h-19.6V905.6z"/>
	<path fill="#fff" d="M1379.7,1018.8c0-34.3,17-61.9,53.9-61.9c36.9,0,53.9,27.6,53.9,61.9c0,34.1-16.6,61.6-53.9,61.6
		C1396.3,1080.5,1379.7,1053.2,1379.7,1018.8z M1467.7,1018.8c0-25.7-9.8-44.4-34.1-44.4c-24.3,0-34.1,18.9-34.1,44.4
		c0,25.7,10,44.1,34.1,44.1C1457.9,1063,1467.7,1044.5,1467.7,1018.8z"/>
	<path fill="#fff" d="M1523.7,1048.5v-72.9h-19.8v-16.6h20.3v-25.5l16.8-6.5h2.3v32h29.2v16.6h-29.2v71.2
		c0,11.4,4.9,16.3,15.6,16.3c5.6,0,9.1-0.7,11.7-1.4h2.3v16.8c-3.7,0.9-10.3,1.9-17.7,1.9
		C1531.6,1080.5,1523.7,1068.3,1523.7,1048.5z"/>
</g>
</svg>
